<?xml version="1.0" encoding="utf-8"?>
<!-- Generator: Adobe Illustrator 25.4.8, SVG Export Plug-In . SVG Version: 6.00 Build 0)  -->
<svg version="1.1" id="Layer_1" xmlns="http://www.w3.org/2000/svg" xmlns:xlink="http://www.w3.org/1999/xlink" x="0px" y="0px"
	 viewBox="0 0 230 230" style="enable-background:new 0 0 230 230;" xml:space="preserve">
<style type="text/css">
	.st0{fill-rule:evenodd;clip-rule:evenodd;fill:#1F0C19;}
	.st1{fill-rule:evenodd;clip-rule:evenodd;fill:#FFFE3E;}
</style>
<path class="st0" d="M206.4,230H23.6C10.6,230,0,219.4,0,206.4V23.6C0,10.6,10.6,0,23.6,0h182.8c13,0,23.6,10.6,23.6,23.6v182.8
	C230,219.4,219.4,230,206.4,230z"/>
<g>
	<path class="st1" d="M121.5,22.9L103,61.4l58.9,45.8L121.5,22.9z M103.6,108l10,20.9l36.1-3.3l-5.8-12L85.1,67.7l-31.9,66.7
		l39.5-3.6L103.6,108z M161.3,140.2l32,66.8H36.7l27.8-58l39.5-3.6l-13.4,27.8h48.5l-14.2-29.7L161.3,140.2z"/>
</g>
</svg>
